<?xml version="1.0" encoding="UTF-8"?>
<!DOCTYPE svg PUBLIC "-//W3C//DTD SVG 1.1//EN" "http://www.w3.org/Graphics/SVG/1.1/DTD/svg11.dtd">
<svg xmlns="http://www.w3.org/2000/svg" version="1.1" width="332px" height="322px" style="shape-rendering:geometricPrecision; text-rendering:geometricPrecision; image-rendering:optimizeQuality; fill-rule:evenodd; clip-rule:evenodd" xmlns:xlink="http://www.w3.org/1999/xlink">
<g><path style="opacity:1" fill="#fdfdfd" d="M -0.5,-0.5 C 110.167,-0.5 220.833,-0.5 331.5,-0.5C 331.5,106.833 331.5,214.167 331.5,321.5C 220.833,321.5 110.167,321.5 -0.5,321.5C -0.5,214.167 -0.5,106.833 -0.5,-0.5 Z"/></g>
<g><path style="opacity:1" fill="#090909" d="M 244.5,23.5 C 247.291,25.7349 250.291,27.7349 253.5,29.5C 253.833,29.5 254.167,29.5 254.5,29.5C 259.128,33.1556 263.794,36.8223 268.5,40.5C 279.587,50.9174 289.587,62.2507 298.5,74.5C 316.517,104.56 325.183,137.226 324.5,172.5C 323.055,193.284 317.722,212.951 308.5,231.5C 307.504,231.414 306.671,231.748 306,232.5C 297.55,247.778 287.383,261.778 275.5,274.5C 266.486,281.998 257.153,288.998 247.5,295.5C 231.356,304.993 214.023,311.327 195.5,314.5C 187.816,314.979 180.149,315.645 172.5,316.5C 165.833,316.5 159.167,316.5 152.5,316.5C 162.366,315.833 172.366,314.999 182.5,314C 170.837,314.832 159.17,314.665 147.5,313.5C 134.115,312.569 121.115,309.903 108.5,305.5C 108.611,304.883 108.944,304.383 109.5,304C 102.345,301.118 95.3446,297.951 88.5,294.5C 59.9322,279.433 37.7656,257.766 22,229.5C 21.6174,230.056 21.1174,230.389 20.5,230.5C 10.9476,212.624 4.94755,193.624 2.5,173.5C 2.5,171.5 2.5,169.5 2.5,167.5C 3.83333,157.5 3.83333,147.5 2.5,137.5C 2.5,136.833 2.5,136.167 2.5,135.5C 3.11742,135.611 3.61742,135.944 4,136.5C 4.37061,132.238 5.20394,128.071 6.5,124C 6.01087,122.862 5.67754,121.695 5.5,120.5C 6.16667,116.833 6.83333,113.167 7.5,109.5C 8.82487,110.953 9.6582,110.619 10,108.5C 13.035,98.7732 16.8684,89.4399 21.5,80.5C 30.8292,62.4954 43.4959,47.1621 59.5,34.5C 63.7364,32.2774 67.7364,29.6107 71.5,26.5C 72.293,27.3554 71.9597,28.1887 70.5,29C 71.9078,29.3152 73.2411,28.9819 74.5,28C 80.1539,24.0719 85.8206,20.2386 91.5,16.5C 97.4423,15.1874 102.776,12.8541 107.5,9.5C 155.301,-5.93461 200.968,-1.26794 244.5,23.5 Z"/></g>
<g><path style="opacity:1" fill="#898989" d="M 225.5,26.5 C 216.716,23.8506 208.216,20.5173 200,16.5C 199.586,16.9574 199.086,17.2907 198.5,17.5C 190.432,14.8137 182.265,14.147 174,15.5C 171.583,14.0015 168.917,13.3349 166,13.5C 154.94,13.8224 144.107,15.4891 133.5,18.5C 132.817,18.1373 132.15,17.8039 131.5,17.5C 164.269,8.82025 196.269,11.3203 227.5,25C 226.584,25.2784 225.918,25.7784 225.5,26.5 Z"/></g>
<g><path style="opacity:1" fill="#fbfbfb" d="M 225.5,26.5 C 264.475,45.6876 290.975,76.0209 305,117.5C 314.944,154.383 311.777,190.05 295.5,224.5C 294.566,223.432 294.232,222.099 294.5,220.5C 297.099,212.537 299.599,204.537 302,196.5C 303.348,183.875 303.848,171.209 303.5,158.5C 303.44,157.957 303.107,157.624 302.5,157.5C 301.507,162.12 301.173,166.786 301.5,171.5C 299.152,206.603 285.818,236.603 261.5,261.5C 245.857,274.679 228.857,285.179 210.5,293C 211.056,293.383 211.389,293.883 211.5,294.5C 210.833,294.5 210.167,294.5 209.5,294.5C 208.903,293.861 208.07,293.528 207,293.5C 196.976,296.273 186.809,298.606 176.5,300.5C 174.833,300.5 173.167,300.5 171.5,300.5C 166.5,299.167 161.5,299.167 156.5,300.5C 105.693,297.352 66.1933,274.685 38,232.5C 17.1835,195.636 11.8502,156.636 22,115.5C 35.1364,69.7075 63.6364,37.8741 107.5,20C 91.8809,28.7495 77.7142,39.5829 65,52.5C 57.8805,61.0816 52.0472,70.4149 47.5,80.5C 45.8253,82.1788 44.992,84.1788 45,86.5C 46.4307,84.6365 47.5974,82.6365 48.5,80.5C 67.9264,48.6226 95.593,27.6226 131.5,17.5C 132.15,17.8039 132.817,18.1373 133.5,18.5C 144.107,15.4891 154.94,13.8224 166,13.5C 168.917,13.3349 171.583,14.0015 174,15.5C 182.265,14.147 190.432,14.8137 198.5,17.5C 199.086,17.2907 199.586,16.9574 200,16.5C 208.216,20.5173 216.716,23.8506 225.5,26.5 Z"/></g>
<g><path style="opacity:1" fill="#aaaaaa" d="M 107.5,9.5 C 102.776,12.8541 97.4423,15.1874 91.5,16.5C 92.463,15.6365 92.463,14.9698 91.5,14.5C 86.2514,17.3738 81.0848,20.3738 76,23.5C 75.6012,23.2716 75.4346,22.9382 75.5,22.5C 80.9323,18.1014 86.9323,14.4347 93.5,11.5C 94.1667,11.8333 94.8333,12.1667 95.5,12.5C 99.3725,10.1846 103.373,9.18457 107.5,9.5 Z"/></g>
<g><path style="opacity:1" fill="#525252" d="M 91.5,16.5 C 85.8206,20.2386 80.1539,24.0719 74.5,28C 73.2411,28.9819 71.9078,29.3152 70.5,29C 71.9597,28.1887 72.293,27.3554 71.5,26.5C 67.7364,29.6107 63.7364,32.2774 59.5,34.5C 64.1092,29.5293 69.4425,25.5293 75.5,22.5C 75.4346,22.9382 75.6012,23.2716 76,23.5C 81.0848,20.3738 86.2514,17.3738 91.5,14.5C 92.463,14.9698 92.463,15.6365 91.5,16.5 Z"/></g>
<g><path style="opacity:1" fill="#959595" d="M 253.5,29.5 C 250.291,27.7349 247.291,25.7349 244.5,23.5C 244.56,22.9569 244.893,22.6236 245.5,22.5C 249.17,23.9543 251.836,26.2876 253.5,29.5 Z"/></g>
<g><path style="opacity:1" fill="#7d7d7d" d="M 269.5,39.5 C 268.833,39.5 268.5,39.8333 268.5,40.5C 263.794,36.8223 259.128,33.1556 254.5,29.5C 254.897,28.475 255.563,28.3083 256.5,29C 261.269,32.0395 265.603,35.5395 269.5,39.5 Z"/></g>
<g><path style="opacity:1" fill="#0a0b0b" d="M 272.5,167.5 C 269.012,165.723 265.346,164.889 261.5,165C 252.657,186.274 237.99,192.107 217.5,182.5C 216.737,181.732 215.737,181.232 214.5,181C 215.678,180.033 217.011,179.533 218.5,179.5C 218.291,178.914 217.957,178.414 217.5,178C 222.057,173.946 226.057,169.446 229.5,164.5C 224.633,159.322 219.633,154.155 214.5,149C 213.552,148.517 212.552,148.351 211.5,148.5C 214.008,153.851 217.842,158.185 223,161.5C 224.301,163.365 224.635,165.365 224,167.5C 210.954,180.045 198.454,193.045 186.5,206.5C 187.325,207.386 188.325,207.719 189.5,207.5C 188.833,208.5 188.167,209.5 187.5,210.5C 186.956,224.548 179.623,232.381 165.5,234C 159.704,234.791 154.038,234.291 148.5,232.5C 135.022,227.976 129.855,218.642 133,204.5C 136.507,196.979 142.34,192.146 150.5,190C 157.203,189.287 163.87,189.454 170.5,190.5C 171.833,191.833 173.167,191.833 174.5,190.5C 175.25,196.183 176.583,201.683 178.5,207C 179.833,207.667 181.167,207.667 182.5,207C 195.931,193.347 209.264,179.514 222.5,165.5C 217.515,160.015 212.348,154.681 207,149.5C 203.651,152.682 200.484,156.015 197.5,159.5C 199.372,161.535 201.039,163.702 202.5,166C 201.015,168.652 199.015,170.818 196.5,172.5C 195.833,172.167 195.167,171.833 194.5,171.5C 193.282,157.69 190.616,144.19 186.5,131C 185.517,130.409 184.85,130.743 184.5,132C 186.058,136.731 187.058,141.564 187.5,146.5C 186.662,146.842 186.328,147.508 186.5,148.5C 184.706,141.652 183.039,134.652 181.5,127.5C 178.804,126.885 176.304,126.885 174,127.5C 161.7,138.633 149.867,150.299 138.5,162.5C 136.15,163.195 135.483,164.528 136.5,166.5C 133.956,166.896 131.789,166.229 130,164.5C 129.667,161.167 129.333,157.833 129,154.5C 124.919,161.536 118.919,165.87 111,167.5C 105.395,167.063 102.895,164.063 103.5,158.5C 105.238,149.192 109.905,141.692 117.5,136C 119.534,134.994 121.7,134.494 124,134.5C 129.125,134.448 134.291,134.781 139.5,135.5C 137.855,141.727 136.855,148.061 136.5,154.5C 135.203,156.693 135.203,159.027 136.5,161.5C 137.107,161.376 137.44,161.043 137.5,160.5C 143.675,155.158 149.342,149.325 154.5,143C 154.333,142.5 154.167,142 154,141.5C 153.333,142.833 152.667,142.833 152,141.5C 151.167,142.5 150.333,143.5 149.5,144.5C 146.939,142.906 144.772,140.906 143,138.5C 142.667,139.833 142.333,141.167 142,142.5C 141.997,138.434 141.83,134.434 141.5,130.5C 142.27,127.587 143.27,124.753 144.5,122C 144.167,121.5 143.833,121 143.5,120.5C 139.651,125.86 136.818,125.193 135,118.5C 134.107,119.711 133.274,119.711 132.5,118.5C 133.128,116.742 134.128,115.242 135.5,114C 133.396,113.511 133.062,112.345 134.5,110.5C 134.267,109.068 133.6,108.568 132.5,109C 131.213,110.41 130.046,111.91 129,113.5C 129.179,110.911 130.013,108.411 131.5,106C 131.167,105.5 130.833,105 130.5,104.5C 129.549,105.326 128.549,105.492 127.5,105C 129.026,103.113 131.026,102.113 133.5,102C 129.828,101.303 126.495,100.637 123.5,100C 125.221,98.4728 127.221,97.4728 129.5,97C 127.532,95.4558 125.365,94.2891 123,93.5C 122.772,88.8763 120.939,84.7096 117.5,81C 121.237,80.0009 121.237,78.6675 117.5,77C 118.641,76.2588 118.641,75.4255 117.5,74.5C 118.376,73.7492 119.376,73.2492 120.5,73C 119.167,71.6667 117.833,70.3333 116.5,69C 117.833,67.6667 117.833,66.3333 116.5,65C 117.5,64.6667 118.5,64.3333 119.5,64C 118.643,63.3109 117.977,62.4776 117.5,61.5C 119.005,60.1585 119.672,58.4918 119.5,56.5C 121.547,56.5111 123.547,56.8444 125.5,57.5C 126.647,57.1822 127.481,56.5156 128,55.5C 129.333,56.8333 130.667,58.1667 132,59.5C 133.314,58.6872 134.481,57.6872 135.5,56.5C 137.336,57.919 139.336,59.0857 141.5,60C 142.893,61.1711 143.727,62.6711 144,64.5C 146.843,62.2127 149.177,62.8794 151,66.5C 151.333,64.8333 151.667,63.1667 152,61.5C 153.314,64.4011 154.48,67.4011 155.5,70.5C 157.937,71.9256 160.437,73.259 163,74.5C 163.202,72.7444 163.702,71.0777 164.5,69.5C 166.362,70.5899 168.195,71.5899 170,72.5C 170.115,70.8932 169.615,69.3932 168.5,68C 170.167,66.0128 171.5,63.8461 172.5,61.5C 172.379,60.1055 172.046,58.7722 171.5,57.5C 172.229,55.2365 173.396,53.9032 175,53.5C 175.249,54.624 175.749,55.624 176.5,56.5C 177.189,50.6253 179.856,45.792 184.5,42C 187.029,39.9715 189.696,38.1381 192.5,36.5C 193.428,38.3348 194.594,38.6682 196,37.5C 196.71,38.9733 197.876,39.6399 199.5,39.5C 199.338,41.5273 199.505,43.5273 200,45.5C 200.333,45.1667 200.667,44.8333 201,44.5C 203.289,46.5161 203.789,48.8494 202.5,51.5C 203.59,53.003 204.757,53.3363 206,52.5C 206.354,56.3542 206.854,60.1875 207.5,64C 207.259,65.9836 206.592,67.8169 205.5,69.5C 206.274,70.7112 207.107,70.7112 208,69.5C 207.621,71.075 207.788,72.575 208.5,74C 204.222,76.7308 204.556,78.7308 209.5,80C 208.833,80.6667 208.167,81.3333 207.5,82C 209.17,84.3873 210.837,86.7206 212.5,89C 210.754,89.4709 209.087,90.1376 207.5,91C 208.833,92.3333 210.167,93.6667 211.5,95C 210.167,96.3333 210.167,97.6667 211.5,99C 209.833,99.3333 208.167,99.6667 206.5,100C 207.984,101.574 209.651,102.907 211.5,104C 210.376,104.249 209.376,104.749 208.5,105.5C 210.041,107.204 211.375,109.037 212.5,111C 212.591,113.822 212.258,116.489 211.5,119C 221.71,122.944 230.377,129.11 237.5,137.5C 236.107,144.524 233.274,150.857 229,156.5C 228.696,159.713 230.196,161.713 233.5,162.5C 240.663,161.146 247.83,160.146 255,159.5C 255.269,156.648 256.103,153.982 257.5,151.5C 257.167,151.167 256.833,150.833 256.5,150.5C 253,154.001 248.833,156.334 244,157.5C 238.18,155.996 236.18,152.329 238,146.5C 240.52,140.049 242.186,133.383 243,126.5C 244.073,130.084 244.74,133.75 245,137.5C 245.915,136.672 246.581,135.672 247,134.5C 247.167,135.333 247.333,136.167 247.5,137C 246.521,140.804 246.355,144.638 247,148.5C 253.127,142.713 258.794,136.713 264,130.5C 266.185,130.921 268.351,131.421 270.5,132C 267.899,141.828 265.233,151.662 262.5,161.5C 266.196,163.01 269.529,165.01 272.5,167.5 Z"/></g>
<g><path style="opacity:1" fill="#4e4e4e" d="M 269.5,39.5 C 282.012,49.6751 292.346,61.6751 300.5,75.5C 299.833,75.1667 299.167,74.8333 298.5,74.5C 289.587,62.2507 279.587,50.9174 268.5,40.5C 268.5,39.8333 268.833,39.5 269.5,39.5 Z"/></g>
<g><path style="opacity:1" fill="#5d5d5d" d="M 31.5,71.5 C 32.0431,71.56 32.3764,71.8933 32.5,72.5C 30.6667,75.5 28.8333,78.5 27,81.5C 27.6458,77.8679 29.1458,74.5345 31.5,71.5 Z"/></g>
<g><path style="opacity:1" fill="#6b6b6b" d="M 47.5,80.5 C 47.8333,80.5 48.1667,80.5 48.5,80.5C 47.5974,82.6365 46.4307,84.6365 45,86.5C 44.992,84.1788 45.8253,82.1788 47.5,80.5 Z"/></g>
<g><path style="opacity:1" fill="#434343" d="M 299.5,84.5 C 302.698,87.8949 304.531,91.8949 305,96.5C 302.881,92.5977 301.048,88.5977 299.5,84.5 Z"/></g>
<g><path style="opacity:1" fill="#565656" d="M 21.5,89.5 C 22.0431,89.56 22.3764,89.8933 22.5,90.5C 20.5687,95.1271 18.7353,99.7938 17,104.5C 17.3108,99.1937 18.8108,94.1937 21.5,89.5 Z"/></g>
<g><path style="opacity:1" fill="#7a7a7a" d="M 298.5,74.5 C 299.167,74.8333 299.833,75.1667 300.5,75.5C 319.489,105.087 327.489,137.421 324.5,172.5C 325.183,137.226 316.517,104.56 298.5,74.5 Z"/></g>
<g><path style="opacity:1" fill="#a9a9a9" d="M 21.5,80.5 C 16.8684,89.4399 13.035,98.7732 10,108.5C 9.6582,110.619 8.82487,110.953 7.5,109.5C 9.58923,103.899 11.5892,97.8995 13.5,91.5C 15.9209,87.6597 18.0875,83.6597 20,79.5C 20.3826,80.056 20.8826,80.3893 21.5,80.5 Z"/></g>
<g><path style="opacity:1" fill="#0d0d0d" d="M 104.5,136.5 C 104.5,136.833 104.5,137.167 104.5,137.5C 103.448,137.351 102.448,137.517 101.5,138C 94.2663,146.494 89.5997,156.327 87.5,167.5C 84.8333,167.5 82.1667,167.5 79.5,167.5C 80.0081,164.824 80.1747,162.157 80,159.5C 74.4226,167.921 66.5892,171.088 56.5,169C 48.3865,164.449 44.3865,157.449 44.5,148C 44.669,140.826 46.8357,134.326 51,128.5C 57.0256,120.912 64.5256,115.412 73.5,112C 77.0969,110.723 80.7636,110.39 84.5,111C 87.4688,111.299 88.9688,112.799 89,115.5C 86.7569,113.718 84.2569,113.218 81.5,114C 82.1667,114.667 82.8333,115.333 83.5,116C 68.6406,120.005 58.4739,129.172 53,143.5C 50.9993,151.181 52.8327,157.681 58.5,163C 67.5013,164.253 75.0013,161.42 81,154.5C 82.1348,147.633 83.3014,140.799 84.5,134C 86.4089,133.552 87.5756,134.385 88,136.5C 88.414,136.043 88.914,135.709 89.5,135.5C 90.7904,137.657 91.6237,139.99 92,142.5C 95.0086,138.107 99.1753,136.107 104.5,136.5 Z"/></g>
<g><path style="opacity:1" fill="#565656" d="M 13.5,110.5 C 14.559,112.726 14.3923,115.059 13,117.5C 12.6664,115.153 12.833,112.819 13.5,110.5 Z"/></g>
<g><path style="opacity:1" fill="#f8f8f8" d="M 186.5,148.5 C 187.619,157.497 188.785,166.497 190,175.5C 190.667,176.167 191.333,176.833 192,177.5C 193.707,175.963 195.207,174.296 196.5,172.5C 199.015,170.818 201.015,168.652 202.5,166C 201.039,163.702 199.372,161.535 197.5,159.5C 200.484,156.015 203.651,152.682 207,149.5C 212.348,154.681 217.515,160.015 222.5,165.5C 209.264,179.514 195.931,193.347 182.5,207C 181.167,207.667 179.833,207.667 178.5,207C 176.583,201.683 175.25,196.183 174.5,190.5C 172.818,177.708 170.485,165.042 167.5,152.5C 162.583,154.899 159.416,158.566 158,163.5C 159.685,165.017 161.185,166.684 162.5,168.5C 159.138,172.192 155.805,175.859 152.5,179.5C 148.182,174.681 143.682,170.015 139,165.5C 138.517,164.552 138.351,163.552 138.5,162.5C 149.867,150.299 161.7,138.633 174,127.5C 176.304,126.885 178.804,126.885 181.5,127.5C 183.039,134.652 184.706,141.652 186.5,148.5 Z"/></g>
<g><path style="opacity:1" fill="#e6e6e6" d="M 194.5,171.5 C 194.053,174.524 193.22,174.857 192,172.5C 190.66,163.758 189.16,155.092 187.5,146.5C 187.058,141.564 186.058,136.731 184.5,132C 184.85,130.743 185.517,130.409 186.5,131C 190.616,144.19 193.282,157.69 194.5,171.5 Z"/></g>
<g><path style="opacity:1" fill="#434343" d="M 5.5,120.5 C 5.67754,121.695 6.01087,122.862 6.5,124C 5.20394,128.071 4.37061,132.238 4,136.5C 3.61742,135.944 3.11742,135.611 2.5,135.5C 3.19343,130.316 4.19343,125.316 5.5,120.5 Z"/></g>
<g><path style="opacity:1" fill="#ebebeb" d="M 123.5,136.5 C 125.75,136.181 127.75,136.681 129.5,138C 125.836,146.822 120.169,153.989 112.5,159.5C 112.131,156.402 112.964,153.402 115,150.5C 117.472,146.034 120.638,142.201 124.5,139C 122.381,138.658 122.047,137.825 123.5,136.5 Z"/></g>
<g><path style="opacity:1" fill="#6a6a6a" d="M 104.5,137.5 C 104.5,137.167 104.5,136.833 104.5,136.5C 106.989,136.298 109.323,136.798 111.5,138C 109.203,138.018 106.869,137.851 104.5,137.5 Z"/></g>
<g><path style="opacity:1" fill="#dddddd" d="M 217.5,182.5 C 216.167,182.5 214.833,182.5 213.5,182.5C 209.833,185.5 206.5,188.833 203.5,192.5C 202.833,194.5 201.5,195.833 199.5,196.5C 196.757,198.239 194.757,200.573 193.5,203.5C 191.833,204.5 190.5,205.833 189.5,207.5C 188.325,207.719 187.325,207.386 186.5,206.5C 198.454,193.045 210.954,180.045 224,167.5C 224.635,165.365 224.301,163.365 223,161.5C 217.842,158.185 214.008,153.851 211.5,148.5C 212.552,148.351 213.552,148.517 214.5,149C 219.633,154.155 224.633,159.322 229.5,164.5C 226.057,169.446 222.057,173.946 217.5,178C 217.957,178.414 218.291,178.914 218.5,179.5C 217.011,179.533 215.678,180.033 214.5,181C 215.737,181.232 216.737,181.732 217.5,182.5 Z"/></g>
<g><path style="opacity:1" fill="#303030" d="M 2.5,137.5 C 3.83333,147.5 3.83333,157.5 2.5,167.5C 2.79472,165.265 2.46138,163.265 1.5,161.5C 1.34371,153.471 1.67704,145.471 2.5,137.5 Z"/></g>
<g><path style="opacity:1" fill="#171818" d="M 174.5,190.5 C 173.167,191.833 171.833,191.833 170.5,190.5C 170.495,186.466 170.162,182.466 169.5,178.5C 166.401,178.092 164.067,179.259 162.5,182C 156.617,183.592 151.617,182.259 147.5,178C 135.471,177.258 123.471,177.591 111.5,179C 92.0013,182.233 72.668,186.233 53.5,191C 51.5,191.667 49.5,191.667 47.5,191C 46.1667,190 46.1667,189 47.5,188C 58.7352,185.608 69.7352,182.442 80.5,178.5C 78.1667,177.167 75.8333,175.833 73.5,174.5C 78.2745,171.794 82.9412,172.128 87.5,175.5C 88.8815,178.318 87.8815,179.818 84.5,180C 92.8444,179.443 101.178,178.443 109.5,177C 121.165,176.296 132.831,175.63 144.5,175C 141.629,172.297 138.962,169.464 136.5,166.5C 135.483,164.528 136.15,163.195 138.5,162.5C 138.351,163.552 138.517,164.552 139,165.5C 143.682,170.015 148.182,174.681 152.5,179.5C 155.805,175.859 159.138,172.192 162.5,168.5C 161.185,166.684 159.685,165.017 158,163.5C 159.416,158.566 162.583,154.899 167.5,152.5C 170.485,165.042 172.818,177.708 174.5,190.5 Z"/></g>
<g><path style="opacity:1" fill="#3e3f3f" d="M 180.5,155.5 C 181.773,156.077 181.773,156.743 180.5,157.5C 179.537,157.03 179.537,156.363 180.5,155.5 Z"/></g>
<g><path style="opacity:1" fill="#686868" d="M 136.5,154.5 C 136.205,156.735 136.539,158.735 137.5,160.5C 137.44,161.043 137.107,161.376 136.5,161.5C 135.203,159.027 135.203,156.693 136.5,154.5 Z"/></g>
<g><path style="opacity:1" fill="#242525" d="M 187.5,146.5 C 189.16,155.092 190.66,163.758 192,172.5C 193.22,174.857 194.053,174.524 194.5,171.5C 195.167,171.833 195.833,172.167 196.5,172.5C 195.207,174.296 193.707,175.963 192,177.5C 191.333,176.833 190.667,176.167 190,175.5C 188.785,166.497 187.619,157.497 186.5,148.5C 186.328,147.508 186.662,146.842 187.5,146.5 Z"/></g>
<g><path style="opacity:1" fill="#b4b4b4" d="M 303.5,158.5 C 302.833,162.833 302.167,167.167 301.5,171.5C 301.173,166.786 301.507,162.12 302.5,157.5C 303.107,157.624 303.44,157.957 303.5,158.5 Z"/></g>
<g><path style="opacity:1" fill="#e4e4e4" d="M 163.5,158.5 C 165.927,159.279 165.927,160.446 163.5,162C 166.394,164.909 167.227,168.409 166,172.5C 163.931,175.315 161.431,177.648 158.5,179.5C 157.592,178.21 157.759,176.877 159,175.5C 161.438,173.571 163.272,171.238 164.5,168.5C 163.402,166.225 162.068,164.058 160.5,162C 161.71,160.961 162.71,159.794 163.5,158.5 Z"/></g>
<g><path style="opacity:1" fill="#a5a6a6" d="M 175.5,158.5 C 176.315,159.429 177.148,160.429 178,161.5C 179.194,159.475 180.694,159.141 182.5,160.5C 183.833,161.833 183.833,163.167 182.5,164.5C 180.894,164.519 179.228,164.353 177.5,164C 179.145,165.8 180.478,167.8 181.5,170C 180.167,170.667 178.833,170.667 177.5,170C 177.833,169.667 178.167,169.333 178.5,169C 176.944,167.401 175.277,165.901 173.5,164.5C 175.086,162.827 175.753,160.827 175.5,158.5 Z"/></g>
<g><path style="opacity:1" fill="#f6f6f6" d="M 244.5,164.5 C 247.247,164.187 249.914,164.52 252.5,165.5C 248.517,176.996 240.517,182.163 228.5,181C 223.463,177.966 223.463,174.633 228.5,171C 233.069,168.144 238.069,166.477 243.5,166C 244.056,165.617 244.389,165.117 244.5,164.5 Z"/></g>
<g><path style="opacity:1" fill="#434343" d="M 318.5,153.5 C 319.717,162.029 319.551,170.696 318,179.5C 318.145,170.851 318.312,162.185 318.5,153.5 Z"/></g>
<g><path style="opacity:1" fill="#535353" d="M 272.5,167.5 C 273.756,167.461 274.756,167.961 275.5,169C 274.002,169.585 273.002,169.085 272.5,167.5 Z"/></g>
<g><path style="opacity:1" fill="#929292" d="M 1.5,161.5 C 2.46138,163.265 2.79472,165.265 2.5,167.5C 2.5,169.5 2.5,171.5 2.5,173.5C 0.249206,169.767 -0.0841272,165.767 1.5,161.5 Z"/></g>
<g><path style="opacity:1" fill="#595959" d="M 10.5,122.5 C 11.1471,123.274 11.4805,124.274 11.5,125.5C 9.6749,135.584 8.6749,145.751 8.5,156C 8.97234,166.572 9.80568,177.072 11,187.5C 6.5224,165.869 6.35573,144.203 10.5,122.5 Z"/></g>
<g><path style="opacity:1" fill="#4b4849" d="M 262.5,170.5 C 273.311,169.47 277.477,174.136 275,184.5C 269.942,189.383 264.609,189.716 259,185.5C 256.203,179.496 257.369,174.496 262.5,170.5 Z"/></g>
<g><path style="opacity:1" fill="#f3f3f3" d="M 263.5,171.5 C 271.658,170.823 275.158,174.49 274,182.5C 271.774,186.861 268.274,188.361 263.5,187C 259.713,184.889 258.213,181.722 259,177.5C 260.332,175.34 261.832,173.34 263.5,171.5 Z"/></g>
<g><path style="opacity:1" fill="#6d6d6d" d="M 277.5,171.5 C 279.982,172.804 281.149,174.804 281,177.5C 279.558,175.609 278.391,173.609 277.5,171.5 Z"/></g>
<g><path style="opacity:1" fill="#4d4a4b" d="M 264.5,174.5 C 266.144,174.286 267.644,174.62 269,175.5C 268.641,178.295 268.475,180.962 268.5,183.5C 266.793,179.864 265.626,179.864 265,183.5C 264.502,180.518 264.335,177.518 264.5,174.5 Z"/></g>
<g><path style="opacity:1" fill="#e5e4e5" d="M 265.5,175.5 C 267.465,175.948 267.798,176.948 266.5,178.5C 265.614,177.675 265.281,176.675 265.5,175.5 Z"/></g>
<g><path style="opacity:1" fill="#444545" d="M 213.5,182.5 C 211.167,186.833 207.833,190.167 203.5,192.5C 206.5,188.833 209.833,185.5 213.5,182.5 Z"/></g>
<g><path style="opacity:1" fill="#0d0d0d" d="M 231.5,219.5 C 228.038,218.518 224.371,218.185 220.5,218.5C 219.221,215.998 219.221,213.498 220.5,211C 228.159,210.5 235.826,210.334 243.5,210.5C 243.5,211.167 243.5,211.833 243.5,212.5C 247,224.473 242.667,231.307 230.5,233C 224.085,233.79 217.752,233.624 211.5,232.5C 197.39,226.776 193.223,216.776 199,202.5C 208.501,192.557 220.001,189.391 233.5,193C 236.329,194.247 238.995,195.747 241.5,197.5C 244.631,207.077 241.298,210.244 231.5,207C 231.113,202.094 228.446,200.26 223.5,201.5C 212.874,201.742 208.708,207.075 211,217.5C 211.785,219.286 212.951,220.786 214.5,222C 219.718,223.563 225.051,223.896 230.5,223C 232.311,221.959 232.645,220.793 231.5,219.5 Z"/></g>
<g><path style="opacity:1" fill="#0c0c0c" d="M 122.5,207.5 C 124.413,218.51 120.413,226.344 110.5,231C 107.009,231.738 103.675,232.571 100.5,233.5C 91.4938,233.666 82.4938,233.5 73.5,233C 72.5562,230.281 72.2229,227.448 72.5,224.5C 74.1667,224.5 75.8333,224.5 77.5,224.5C 77.4597,216.813 77.793,209.146 78.5,201.5C 76.5,201.5 74.5,201.5 72.5,201.5C 72.5,198.5 72.5,195.5 72.5,192.5C 84.5621,192.085 96.5621,192.585 108.5,194C 115.684,196.02 120.351,200.52 122.5,207.5 Z"/></g>
<g><path style="opacity:1" fill="#444444" d="M 108.5,195.5 C 112.392,196.289 114.725,198.622 115.5,202.5C 112.48,203.838 109.813,203.838 107.5,202.5C 106.738,201.372 106.071,200.205 105.5,199C 106.539,197.383 107.539,196.217 108.5,195.5 Z"/></g>
<g><path style="opacity:1" fill="#555555" d="M 199.5,196.5 C 198.243,199.427 196.243,201.761 193.5,203.5C 194.757,200.573 196.757,198.239 199.5,196.5 Z"/></g>
<g><path style="opacity:1" fill="#c0c0c0" d="M 167.5,201.5 C 165.283,202.369 162.95,202.702 160.5,202.5C 161.263,201.732 162.263,201.232 163.5,201C 152.96,199.651 147.793,204.151 148,214.5C 148.278,213.584 148.778,212.918 149.5,212.5C 149.5,214.833 149.5,217.167 149.5,219.5C 148.21,218.942 147.377,217.942 147,216.5C 145.452,202.724 151.619,197.224 165.5,200C 166.416,200.278 167.082,200.778 167.5,201.5 Z"/></g>
<g><path style="opacity:1" fill="#212121" d="M 243.5,210.5 C 240.695,209.681 237.695,209.181 234.5,209C 237.553,208.821 240.553,208.321 243.5,207.5C 244.213,205.224 244.713,202.891 245,200.5C 245.167,202.167 245.333,203.833 245.5,205.5C 245.444,207.64 244.777,209.306 243.5,210.5 Z"/></g>
<g><path style="opacity:1" fill="#9f9f9f" d="M 106.5,204.5 C 102.936,205.423 99.2693,205.756 95.5,205.5C 97.631,204.686 99.9644,204.186 102.5,204C 99.5184,203.502 96.5184,203.335 93.5,203.5C 93.5,209.5 93.5,215.5 93.5,221.5C 92.8333,216.833 92.1667,212.167 91.5,207.5C 91.5,205.5 91.5,203.5 91.5,201.5C 95.1817,201.335 98.8484,201.501 102.5,202C 104.066,202.608 105.4,203.442 106.5,204.5 Z"/></g>
<g><path style="opacity:1" fill="#181818" d="M 160.5,202.5 C 154.295,203.039 150.628,206.372 149.5,212.5C 148.778,212.918 148.278,213.584 148,214.5C 147.793,204.151 152.96,199.651 163.5,201C 162.263,201.232 161.263,201.732 160.5,202.5 Z"/></g>
<g><path style="opacity:1" fill="#f9f9f9" d="M 167.5,201.5 C 175.891,209.357 175.225,216.524 165.5,223C 161.833,223.667 158.167,223.667 154.5,223C 152.416,222.303 150.749,221.136 149.5,219.5C 149.5,217.167 149.5,214.833 149.5,212.5C 150.628,206.372 154.295,203.039 160.5,202.5C 162.95,202.702 165.283,202.369 167.5,201.5 Z"/></g>
<g><path style="opacity:1" fill="#111111" d="M 95.5,205.5 C 95.5,207.5 95.5,209.5 95.5,211.5C 94.8333,214.833 94.1667,218.167 93.5,221.5C 93.5,215.5 93.5,209.5 93.5,203.5C 96.5184,203.335 99.5184,203.502 102.5,204C 99.9644,204.186 97.631,204.686 95.5,205.5 Z"/></g>
<g><path style="opacity:1" fill="#838383" d="M 226.5,202.5 C 227.756,202.461 228.756,202.961 229.5,204C 226.854,204.497 224.187,204.664 221.5,204.5C 223.167,203.833 224.833,203.167 226.5,202.5 Z"/></g>
<g><path style="opacity:1" fill="#fbfbfb" d="M 106.5,204.5 C 107.79,205.058 108.623,206.058 109,207.5C 110.838,220.822 105.004,226.155 91.5,223.5C 91.5,218.167 91.5,212.833 91.5,207.5C 92.1667,212.167 92.8333,216.833 93.5,221.5C 93.56,222.043 93.8933,222.376 94.5,222.5C 95.4892,218.893 95.8226,215.226 95.5,211.5C 95.5,209.5 95.5,207.5 95.5,205.5C 99.2693,205.756 102.936,205.423 106.5,204.5 Z"/></g>
<g><path style="opacity:1" fill="#1b1b1b" d="M 226.5,202.5 C 224.833,203.167 223.167,203.833 221.5,204.5C 216.96,204.708 214.293,207.041 213.5,211.5C 212.662,211.158 212.328,210.492 212.5,209.5C 215.171,203.497 219.838,201.164 226.5,202.5 Z"/></g>
<g><path style="opacity:1" fill="#1f1f1f" d="M 193.5,203.5 C 193.315,205.196 192.481,206.529 191,207.5C 192.963,224.096 185.797,233.929 169.5,237C 163.782,237.74 158.115,237.573 152.5,236.5C 157.651,235.673 162.984,235.173 168.5,235C 182.49,232.233 188.823,224.066 187.5,210.5C 188.167,209.5 188.833,208.5 189.5,207.5C 190.5,205.833 191.833,204.5 193.5,203.5 Z"/></g>
<g><path style="opacity:1" fill="#717171" d="M 212.5,209.5 C 212.328,210.492 212.662,211.158 213.5,211.5C 213.663,213.857 213.497,216.19 213,218.5C 211.337,215.44 211.17,212.44 212.5,209.5 Z"/></g>
<g><path style="opacity:1" fill="#1f1f1f" d="M 247.5,214.5 C 249.715,227.134 244.382,234.301 231.5,236C 226.511,236.499 221.511,236.666 216.5,236.5C 224.822,236.401 232.822,234.567 240.5,231C 242.333,229.833 243.833,228.333 245,226.5C 244.898,222.044 245.732,218.044 247.5,214.5 Z"/></g>
<g><path style="opacity:1" fill="#979797" d="M 95.5,211.5 C 95.8226,215.226 95.4892,218.893 94.5,222.5C 93.8933,222.376 93.56,222.043 93.5,221.5C 94.1667,218.167 94.8333,214.833 95.5,211.5 Z"/></g>
<g><path style="opacity:1" fill="#c3c3c3" d="M 243.5,212.5 C 244.995,212.989 246.329,213.655 247.5,214.5C 245.732,218.044 244.898,222.044 245,226.5C 243.833,228.333 242.333,229.833 240.5,231C 232.822,234.567 224.822,236.401 216.5,236.5C 214.821,236.108 213.154,235.608 211.5,235C 210.402,234.23 210.402,233.397 211.5,232.5C 217.752,233.624 224.085,233.79 230.5,233C 242.667,231.307 247,224.473 243.5,212.5 Z"/></g>
<g><path style="opacity:1" fill="#202020" d="M 102.5,234.5 C 113.972,234.013 121.305,228.347 124.5,217.5C 124.335,213.818 124.501,210.152 125,206.5C 128.846,223.666 122.012,233.499 104.5,236C 95.1489,236.832 85.8155,236.665 76.5,235.5C 85.1411,234.502 93.8078,234.169 102.5,234.5 Z"/></g>
<g><path style="opacity:1" fill="#666666" d="M 220.5,218.5 C 224.371,218.185 228.038,218.518 231.5,219.5C 229.287,222.554 226.62,223.054 223.5,221C 225.167,220.667 226.833,220.333 228.5,220C 225.635,219.817 222.969,219.317 220.5,218.5 Z"/></g>
<g><path style="opacity:1" fill="#808080" d="M 145.5,222.5 C 147.07,221.441 148.403,221.941 149.5,224C 147.972,225.361 146.305,226.528 144.5,227.5C 143.618,226.24 142.618,225.074 141.5,224C 143.449,223.331 144.783,222.831 145.5,222.5 Z"/></g>
<g><path style="opacity:1" fill="#4b4b4b" d="M 234.5,221.5 C 236.564,221.687 238.564,222.187 240.5,223C 238.285,223.17 236.285,223.837 234.5,225C 235.126,225.75 235.626,226.584 236,227.5C 237.494,223.696 238.328,224.029 238.5,228.5C 236.801,228.66 235.134,228.494 233.5,228C 233.833,227.667 234.167,227.333 234.5,227C 233.167,226.667 231.833,226.333 230.5,226C 232.751,225.252 234.084,223.752 234.5,221.5 Z"/></g>
<g><path style="opacity:1" fill="#aaaaaa" d="M 294.5,220.5 C 294.232,222.099 294.566,223.432 295.5,224.5C 293.947,227.935 292.114,231.268 290,234.5C 289.333,232.833 289.333,231.167 290,229.5C 291.801,226.563 293.301,223.563 294.5,220.5 Z"/></g>
<g><path style="opacity:1" fill="#c0c0c0" d="M 122.5,207.5 C 123.167,210.833 123.833,214.167 124.5,217.5C 121.305,228.347 113.972,234.013 102.5,234.5C 102.158,233.662 101.492,233.328 100.5,233.5C 103.675,232.571 107.009,231.738 110.5,231C 120.413,226.344 124.413,218.51 122.5,207.5 Z"/></g>
<g><path style="opacity:1" fill="#d2d2d2" d="M 187.5,210.5 C 188.823,224.066 182.49,232.233 168.5,235C 162.984,235.173 157.651,235.673 152.5,236.5C 151.234,235.91 149.901,235.41 148.5,235C 147.402,234.23 147.402,233.397 148.5,232.5C 154.038,234.291 159.704,234.791 165.5,234C 179.623,232.381 186.956,224.548 187.5,210.5 Z"/></g>
<g><path style="opacity:1" fill="#7a7a7a" d="M 287.5,236.5 C 288.713,237.497 288.546,238.497 287,239.5C 286.53,238.423 286.697,237.423 287.5,236.5 Z"/></g>
<g><path style="opacity:1" fill="#212121" d="M 199.5,239.5 C 200.675,239.281 201.675,239.614 202.5,240.5C 200.948,241.798 199.948,241.465 199.5,239.5 Z"/></g>
<g><path style="opacity:1" fill="#131414" d="M 184.5,241.5 C 186.048,241.821 186.715,242.821 186.5,244.5C 187.5,244.5 188.5,244.5 189.5,244.5C 189.5,244.833 189.5,245.167 189.5,245.5C 188.5,245.5 187.5,245.5 186.5,245.5C 186.194,248.385 186.527,251.052 187.5,253.5C 188.091,254.151 188.757,254.818 189.5,255.5C 187.741,256.754 186.241,256.421 185,254.5C 184.963,250.911 184.13,247.578 182.5,244.5C 183.612,243.735 184.279,242.735 184.5,241.5 Z"/></g>
<g><path style="opacity:1" fill="#888888" d="M 184.5,241.5 C 185.209,240.596 186.209,240.263 187.5,240.5C 187.527,242.199 188.194,243.533 189.5,244.5C 188.5,244.5 187.5,244.5 186.5,244.5C 186.715,242.821 186.048,241.821 184.5,241.5 Z"/></g>
<g><path style="opacity:1" fill="#191a1a" d="M 98.5,243.5 C 101.044,243.104 103.211,243.771 105,245.5C 105.667,248.5 105.667,251.5 105,254.5C 101.626,257.405 98.6258,257.072 96,253.5C 94.8613,249.579 95.6946,246.246 98.5,243.5 Z"/></g>
<g><path style="opacity:1" fill="#797979" d="M 137.5,244.5 C 136.839,246.134 136.506,247.967 136.5,250C 136.547,252.295 137.213,254.129 138.5,255.5C 137.791,256.404 136.791,256.737 135.5,256.5C 135.174,252.116 135.508,247.783 136.5,243.5C 137.107,243.624 137.44,243.957 137.5,244.5 Z"/></g>
<g><path style="opacity:1" fill="#1f1f1f" d="M 138.5,255.5 C 137.213,254.129 136.547,252.295 136.5,250C 136.506,247.967 136.839,246.134 137.5,244.5C 140.306,242.83 142.806,243.163 145,245.5C 147.333,242.833 149.667,242.833 152,245.5C 152.499,249.152 152.665,252.818 152.5,256.5C 151.5,256.5 150.5,256.5 149.5,256.5C 149.665,253.15 149.498,249.817 149,246.5C 148,245.167 147,245.167 146,246.5C 145.502,249.817 145.335,253.15 145.5,256.5C 144.5,256.5 143.5,256.5 142.5,256.5C 142.5,252.833 142.5,249.167 142.5,245.5C 141.178,245.33 140.011,245.663 139,246.5C 138.502,249.482 138.335,252.482 138.5,255.5 Z"/></g>
<g><path style="opacity:1" fill="#929292" d="M 202.5,244.5 C 201.213,245.871 200.547,247.705 200.5,250C 200.547,252.295 201.213,254.129 202.5,255.5C 201.791,256.404 200.791,256.737 199.5,256.5C 199.5,252.167 199.5,247.833 199.5,243.5C 200.791,243.263 201.791,243.596 202.5,244.5 Z"/></g>
<g><path style="opacity:1" fill="#040605" d="M 202.5,244.5 C 202.5,248.167 202.5,251.833 202.5,255.5C 201.213,254.129 200.547,252.295 200.5,250C 200.547,247.705 201.213,245.871 202.5,244.5 Z"/></g>
<g><path style="opacity:1" fill="#262727" d="M 215.5,243.5 C 218.38,243.033 220.713,243.866 222.5,246C 222.167,246.5 221.833,247 221.5,247.5C 220.18,245.73 218.68,245.397 217,246.5C 216.333,248.833 216.333,251.167 217,253.5C 217.414,253.957 217.914,254.291 218.5,254.5C 219.695,252.703 221.362,251.703 223.5,251.5C 222.615,255.784 219.949,257.284 215.5,256C 212.86,251.768 212.86,247.601 215.5,243.5 Z"/></g>
<g><path style="opacity:1" fill="#171818" d="M 78.5,243.5 C 81.5959,242.907 83.9292,243.907 85.5,246.5C 83.3654,246.32 81.1987,246.32 79,246.5C 78.3333,248.833 78.3333,251.167 79,253.5C 79.5613,254.022 80.228,254.355 81,254.5C 82.1681,253.491 83.3348,252.491 84.5,251.5C 85.2144,255.923 83.2144,257.423 78.5,256C 75.8701,251.834 75.8701,247.668 78.5,243.5 Z"/></g>
<g><path style="opacity:1" fill="#0f1010" d="M 165.5,243.5 C 170.811,242.972 173.145,245.306 172.5,250.5C 170.167,250.5 167.833,250.5 165.5,250.5C 166.09,254.92 168.09,255.586 171.5,252.5C 172.199,254.997 171.032,256.33 168,256.5C 166.289,256.561 164.956,255.894 164,254.5C 163.013,250.525 163.513,246.859 165.5,243.5 Z"/></g>
<g><path style="opacity:1" fill="#dfdfdf" d="M 99.5,245.5 C 100.822,245.33 101.989,245.663 103,246.5C 103.667,248.833 103.667,251.167 103,253.5C 101.667,254.833 100.333,254.833 99,253.5C 98.2782,250.739 98.4448,248.073 99.5,245.5 Z"/></g>
<g><path style="opacity:1" fill="#d2d2d2" d="M 166.5,245.5 C 169.5,245.167 170.833,246.5 170.5,249.5C 168.833,249.5 167.167,249.5 165.5,249.5C 165.433,248.041 165.766,246.708 166.5,245.5 Z"/></g>
<g><path style="opacity:1" fill="#8f8f8f" d="M 189.5,245.5 C 187.798,247.8 187.132,250.467 187.5,253.5C 186.527,251.052 186.194,248.385 186.5,245.5C 187.5,245.5 188.5,245.5 189.5,245.5 Z"/></g>
<g><path style="opacity:1" fill="#1d1e1e" d="M 118.5,243.5 C 121.463,243.151 123.796,244.151 125.5,246.5C 125,246.833 124.5,247.167 124,247.5C 122.242,245.231 120.408,245.065 118.5,247C 121.492,248.315 123.825,250.315 125.5,253C 124.876,255.291 123.376,256.457 121,256.5C 117.638,256.642 116.471,255.308 117.5,252.5C 118.85,253.95 120.516,254.617 122.5,254.5C 122.072,251.754 120.406,250.087 117.5,249.5C 116.229,247.194 116.562,245.194 118.5,243.5 Z"/></g>
<g><path style="opacity:1" fill="#1e1e1e" d="M 235.5,243.5 C 238.596,242.907 240.929,243.907 242.5,246.5C 242,246.833 241.5,247.167 241,247.5C 239.242,245.231 237.408,245.065 235.5,247C 238.492,248.315 240.825,250.315 242.5,253C 241.876,255.291 240.376,256.457 238,256.5C 234.638,256.642 233.471,255.308 234.5,252.5C 235.85,253.95 237.516,254.617 239.5,254.5C 239.072,251.754 237.406,250.087 234.5,249.5C 233.229,247.194 233.562,245.194 235.5,243.5 Z"/></g>
<g><path style="opacity:1" fill="#7b7b7b" d="M 88.5,294.5 C 88.1583,295.338 87.4916,295.672 86.5,295.5C 57.9072,280.574 35.9072,258.908 20.5,230.5C 21.1174,230.389 21.6174,230.056 22,229.5C 37.7656,257.766 59.9322,279.433 88.5,294.5 Z"/></g>
<g><path style="opacity:1" fill="#3b3b3b" d="M 308.5,231.5 C 299.921,247.994 288.921,262.661 275.5,275.5C 275.5,275.167 275.5,274.833 275.5,274.5C 287.383,261.778 297.55,247.778 306,232.5C 306.671,231.748 307.504,231.414 308.5,231.5 Z"/></g>
<g><path style="opacity:1" fill="#484848" d="M 268.5,272.5 C 269.774,273.189 269.774,274.023 268.5,275C 265.872,276.626 263.539,278.626 261.5,281C 260.241,281.982 258.908,282.315 257.5,282C 261.359,278.968 265.026,275.802 268.5,272.5 Z"/></g>
<g><path style="opacity:1" fill="#c8c8c8" d="M 275.5,274.5 C 275.5,274.833 275.5,275.167 275.5,275.5C 268.843,283.641 260.843,290.141 251.5,295C 250.207,295.49 248.873,295.657 247.5,295.5C 257.153,288.998 266.486,281.998 275.5,274.5 Z"/></g>
<g><path style="opacity:1" fill="#818181" d="M 261.5,261.5 C 247.237,275.977 230.571,286.977 211.5,294.5C 211.389,293.883 211.056,293.383 210.5,293C 228.857,285.179 245.857,274.679 261.5,261.5 Z"/></g>
<g><path style="opacity:1" fill="#626262" d="M 240.5,292.5 C 242.842,292.775 242.842,293.608 240.5,295C 238.956,296.187 237.289,296.52 235.5,296C 237.584,295.303 239.251,294.136 240.5,292.5 Z"/></g>
<g><path style="opacity:1" fill="#727272" d="M 209.5,294.5 C 198.042,299.226 186.042,301.726 173.5,302C 174.737,301.768 175.737,301.268 176.5,300.5C 186.809,298.606 196.976,296.273 207,293.5C 208.07,293.528 208.903,293.861 209.5,294.5 Z"/></g>
<g><path style="opacity:1" fill="#4e4e4e" d="M 88.5,294.5 C 95.3446,297.951 102.345,301.118 109.5,304C 108.944,304.383 108.611,304.883 108.5,305.5C 100.842,302.732 93.5084,299.399 86.5,295.5C 87.4916,295.672 88.1583,295.338 88.5,294.5 Z"/></g>
<g><path style="opacity:1" fill="#4c4c4c" d="M 171.5,300.5 C 166.5,301.833 161.5,301.833 156.5,300.5C 161.5,299.167 166.5,299.167 171.5,300.5 Z"/></g>
<g><path style="opacity:1" fill="#8c8c8c" d="M 147.5,313.5 C 159.17,314.665 170.837,314.832 182.5,314C 172.366,314.999 162.366,315.833 152.5,316.5C 150.545,317.323 148.545,317.49 146.5,317C 147.167,316.667 147.833,316.333 148.5,316C 146.5,315.667 144.5,315.333 142.5,315C 144.382,314.802 146.048,314.302 147.5,313.5 Z"/></g>
<g><path style="opacity:1" fill="#595959" d="M 195.5,314.5 C 187.918,316.741 180.251,317.408 172.5,316.5C 180.149,315.645 187.816,314.979 195.5,314.5 Z"/></g>
</svg>
